<svg version="1.1" id="Layer_1" xmlns="http://www.w3.org/2000/svg" xmlns:xlink="http://www.w3.org/1999/xlink" x="0px" y="0px"
	 width="100%" viewBox="0 0 512 512" enable-background="new 0 0 512 512" xml:space="preserve">
<path fill="#FFFFFF" opacity="1.000000" stroke="none" 
	d="
M513.000000,12.999998 
	C513.000000,179.631638 513.000000,346.263275 513.000000,512.947449 
	C342.404236,512.947449 171.808472,512.947449 1.106344,512.947449 
	C1.106344,342.440155 1.106344,171.880219 1.106344,1.000000 
	C167.358093,1.000000 333.716400,1.000000 500.356750,1.380688 
	C489.507996,3.401488 478.313995,4.700326 467.258514,6.747379 
	C437.240387,12.305583 408.051575,20.790812 380.214752,33.416477 
	C370.945862,37.620480 362.233154,43.050758 352.876648,47.941101 
	C351.838440,48.084923 351.082123,48.033245 350.556763,48.356689 
	C335.566345,57.585056 321.096344,67.547150 308.556793,79.992096 
	C285.748596,102.628242 263.092438,125.417542 240.353088,148.123169 
	C238.951660,149.522507 237.378265,150.749649 235.455017,152.032364 
	C233.694489,151.984207 232.333786,152.134598 231.037750,151.910706 
	C214.037201,148.973862 197.049423,145.963104 180.051025,143.013550 
	C162.728745,140.007812 145.411911,136.965302 128.058823,134.147385 
	C124.930237,133.639313 121.808258,133.483978 118.948158,136.382690 
	C98.142982,157.468842 77.132309,178.352188 56.205578,199.318588 
	C55.345486,200.180328 54.674450,201.230759 53.519115,202.695663 
	C56.006229,202.912582 57.779873,202.946625 59.510277,203.237732 
	C70.746193,205.127930 81.973213,207.071060 93.202148,209.002686 
	C104.272255,210.906982 115.330223,212.884735 126.413422,214.709290 
	C139.926224,216.933792 153.459793,219.032089 166.818268,221.461761 
	C160.746643,227.680664 154.788086,233.571686 148.976471,239.604294 
	C147.680939,240.949112 146.902161,242.791733 145.556198,244.373123 
	C134.144180,253.769760 129.568466,266.389435 128.319427,280.314575 
	C126.857094,296.617889 131.457214,311.663391 138.727173,325.920959 
	C128.115494,325.310150 118.724342,328.323914 109.912727,332.749939 
	C90.539268,342.481110 75.666748,357.685913 61.725628,373.863892 
	C58.612621,377.476379 55.932434,381.461853 52.241344,386.350586 
	C60.565598,383.884430 67.428169,381.851318 74.290741,379.818207 
	C74.483253,380.146118 74.675766,380.473999 74.868279,380.801880 
	C57.907780,400.831787 40.947281,420.861664 23.002018,442.054535 
	C35.378147,438.770691 46.402321,435.845581 58.376808,432.668304 
	C45.325436,450.687256 32.822174,467.872314 20.410519,485.123291 
	C15.462932,492.000000 10.717832,499.022400 5.621530,506.079956 
	C4.899791,506.748749 4.437077,507.316101 3.732476,507.982574 
	C3.385487,508.386261 3.280386,508.690796 3.023947,509.308777 
	C2.642720,510.205414 2.412830,510.788696 2.182940,511.371948 
	C3.336689,511.152161 4.743410,511.282928 5.606397,510.660217 
	C19.397558,500.708466 33.111061,490.649261 46.859364,480.638000 
	C58.067657,472.476288 69.298637,464.345764 81.340553,455.605499 
	C78.156311,467.608673 75.233177,478.627594 71.959419,490.968231 
	C93.161324,473.026093 113.222206,456.049561 133.283081,439.073029 
	C133.585739,439.320282 133.888397,439.567505 134.191055,439.814758 
	C132.141647,446.695129 130.092239,453.575531 127.889587,460.970398 
	C129.417343,460.193909 130.386353,459.870148 131.156662,459.284882 
	C144.874924,448.862030 157.725983,437.429626 168.402954,423.900421 
	C179.691437,409.596375 188.647186,394.084106 188.453659,374.992981 
	C191.137344,376.300903 193.419266,377.673157 195.846207,378.703888 
	C217.088333,387.725586 238.333405,389.791168 259.115997,377.632996 
	C263.172302,375.259979 266.285614,371.274994 270.191101,368.014526 
	C271.959167,366.897308 273.482147,365.915314 274.761749,364.681030 
	C280.823730,358.833923 286.819275,352.917908 292.908020,347.458252 
	C293.318085,350.479706 293.587311,353.081146 294.011261,355.657135 
	C296.099915,368.347809 298.220367,381.033264 300.347260,393.717590 
	C302.554474,406.881134 304.782806,420.041138 307.000183,433.202972 
	C308.499695,442.103882 309.996307,451.005280 311.582123,460.428650 
	C312.745636,459.478699 313.533722,458.940948 314.197083,458.278381 
	C335.412842,437.088898 356.641479,415.912048 377.757935,394.623962 
	C378.979095,393.392883 379.908966,391.227661 379.867828,389.523865 
	C379.781921,385.965759 379.013885,382.415863 378.423340,378.879730 
	C376.305237,366.196564 374.154419,353.518890 371.996521,340.842407 
	C370.112152,329.772888 368.115387,318.721710 366.328369,307.636658 
	C364.745361,297.816895 363.382721,287.961578 362.062012,277.809265 
	C366.632019,272.993683 371.083923,268.511444 375.490112,263.984711 
	C399.353210,239.468704 423.601868,215.309311 446.842133,190.216110 
	C454.817505,181.604874 460.261169,170.648880 466.995667,160.452667 
	C472.161194,150.110474 477.586670,140.255402 482.150543,130.016266 
	C496.217987,98.455765 504.649628,65.261795 509.952759,31.207584 
	C510.899567,25.127655 511.980804,19.068659 513.000000,12.999998 
z"/>
<path fill="#C53E2D" opacity="1.000000" stroke="none" 
	d="
M513.000000,12.541929 
	C511.980804,19.068659 510.899567,25.127655 509.952759,31.207584 
	C504.649628,65.261795 496.217987,98.455765 482.150543,130.016266 
	C477.586670,140.255402 472.161194,150.110474 466.690979,160.363495 
	C457.157837,151.583176 448.014526,142.629517 438.982635,133.564819 
	C429.256531,123.803360 419.634857,113.937881 410.115143,103.812340 
	C443.389282,70.306282 476.510284,37.100098 509.673004,3.935628 
	C510.550079,3.058502 511.880829,2.635030 513.000000,2.000004 
	C513.000000,5.361288 513.000000,8.722575 513.000000,12.541929 
z"/>
<path fill="#F74E39" opacity="1.000000" stroke="none" 
	d="
M513.000000,1.500004 
	C511.880829,2.635030 510.550079,3.058502 509.673004,3.935628 
	C476.510284,37.100098 443.389282,70.306282 409.892273,103.746292 
	C409.521820,103.985695 409.068420,103.883743 408.928619,103.583313 
	C390.281281,84.828735 371.773743,66.374588 353.266205,47.920441 
	C362.233154,43.050758 370.945862,37.620480 380.214752,33.416477 
	C408.051575,20.790812 437.240387,12.305583 467.258514,6.747379 
	C478.313995,4.700326 489.507996,3.401488 500.819397,1.380688 
	C505.000000,1.000000 509.000000,1.000000 513.000000,1.500004 
z"/>
<path fill="#DCDEE2" opacity="1.000000" stroke="none" 
	d="
M409.068420,103.883743 
	C409.068420,103.883743 409.521820,103.985695 409.744690,104.051743 
	C419.634857,113.937881 429.256531,123.803360 438.982635,133.564819 
	C448.014526,142.629517 457.157837,151.583176 466.556763,160.674911 
	C460.261169,170.648880 454.817505,181.604874 446.842133,190.216110 
	C423.601868,215.309311 399.353210,239.468704 375.490112,263.984711 
	C371.083923,268.511444 366.632019,272.993683 361.731567,277.843872 
	C338.791565,300.572083 316.319214,322.950928 293.865143,345.348083 
	C293.413879,345.798218 293.175964,346.462250 292.838501,347.026489 
	C286.819275,352.917908 280.823730,358.833923 274.761749,364.681030 
	C273.482147,365.915314 271.959167,366.897308 269.875916,367.917908 
	C252.473785,351.204773 235.744141,334.569275 219.092834,317.605316 
	C219.924591,316.185699 220.664169,315.084686 221.433533,314.004944 
	C236.255035,293.204163 251.122192,272.435547 265.814697,251.544113 
	C266.855469,250.064224 266.616455,247.684296 267.016541,245.404663 
	C268.536346,243.891006 270.123383,242.808548 271.470947,241.482727 
	C285.722382,227.461304 299.949005,213.414505 314.127197,199.319107 
	C315.002228,198.449203 315.412537,197.111862 316.339172,196.002396 
	C317.037964,196.033951 317.436646,196.055115 317.891785,196.421997 
	C319.305908,198.182159 320.481384,199.851700 322.049408,200.971619 
	C337.825104,212.238785 357.958801,211.358948 372.679260,198.741104 
	C382.078796,190.684204 386.653198,180.060684 386.776855,167.985199 
	C386.889252,157.009003 382.551636,147.295563 375.114197,138.861084 
	C377.196198,136.498734 379.129852,134.433670 381.108185,132.412292 
	C390.421539,122.896210 399.747162,113.392113 409.068420,103.883743 
z"/>
<path fill="#EDEEF0" opacity="1.000000" stroke="none" 
	d="
M408.928619,103.583313 
	C399.747162,113.392113 390.421539,122.896210 381.108185,132.412292 
	C379.129852,134.433670 377.196198,136.498734 374.875793,138.839630 
	C374.509644,139.135590 374.031311,139.143311 373.887085,138.823380 
	C368.358032,135.362381 363.318695,131.113419 357.518402,129.304245 
	C344.275269,125.173607 331.645782,127.627457 320.589111,136.271393 
	C310.061920,144.501389 305.125244,155.823074 305.232056,168.825485 
	C305.315308,178.957748 309.171692,188.233185 316.039093,195.992004 
	C315.412537,197.111862 315.002228,198.449203 314.127197,199.319107 
	C299.949005,213.414505 285.722382,227.461304 271.470947,241.482727 
	C270.123383,242.808548 268.536346,243.891006 267.021912,245.492096 
	C266.983276,245.897720 267.027649,246.066910 266.709839,246.036118 
	C265.901337,246.318588 265.410583,246.631851 264.958313,246.964172 
	C264.996735,246.983215 264.950287,246.911072 264.607697,246.964142 
	C256.432983,252.572845 248.612839,258.145447 240.766174,263.680389 
	C225.892151,274.172363 211.002914,284.642792 195.900635,294.860107 
	C193.804214,292.717072 191.921890,290.841278 190.050888,288.954315 
	C175.327866,274.105774 160.606979,259.255157 145.885437,244.405151 
	C146.902161,242.791733 147.680939,240.949112 148.976471,239.604294 
	C154.788086,233.571686 160.746643,227.680664 167.152710,221.363922 
	C168.200928,220.628143 168.829788,220.348282 169.284607,219.894119 
	C190.952545,198.258179 212.611893,176.613586 234.233078,154.930969 
	C234.986603,154.175308 235.343246,153.023880 235.884888,152.056915 
	C237.378265,150.749649 238.951660,149.522507 240.353088,148.123169 
	C263.092438,125.417542 285.748596,102.628242 308.556793,79.992096 
	C321.096344,67.547150 335.566345,57.585056 350.556763,48.356689 
	C351.082123,48.033245 351.838440,48.084923 352.876648,47.941105 
	C371.773743,66.374588 390.281281,84.828735 408.928619,103.583313 
z"/>
<path fill="#F74D37" opacity="1.000000" stroke="none" 
	d="
M235.455002,152.032349 
	C235.343246,153.023880 234.986603,154.175308 234.233078,154.930969 
	C212.611893,176.613586 190.952545,198.258179 169.284607,219.894119 
	C168.829788,220.348282 168.200928,220.628143 167.318817,221.087128 
	C153.459793,219.032089 139.926224,216.933792 126.413422,214.709290 
	C115.330223,212.884735 104.272255,210.906982 93.202148,209.002686 
	C81.973213,207.071060 70.746193,205.127930 59.510277,203.237732 
	C57.779873,202.946625 56.006229,202.912582 53.519115,202.695663 
	C54.674450,201.230759 55.345486,200.180328 56.205578,199.318588 
	C77.132309,178.352188 98.142982,157.468842 118.948158,136.382690 
	C121.808258,133.483978 124.930237,133.639313 128.058823,134.147385 
	C145.411911,136.965302 162.728745,140.007812 180.051025,143.013550 
	C197.049423,145.963104 214.037201,148.973862 231.037750,151.910706 
	C232.333786,152.134598 233.694489,151.984207 235.455002,152.032349 
z"/>
<path fill="#C43D2C" opacity="1.000000" stroke="none" 
	d="
M292.908020,347.458252 
	C293.175964,346.462250 293.413879,345.798218 293.865143,345.348083 
	C316.319214,322.950928 338.791565,300.572083 361.592346,278.156616 
	C363.382721,287.961578 364.745361,297.816895 366.328369,307.636658 
	C368.115387,318.721710 370.112152,329.772888 371.996521,340.842407 
	C374.154419,353.518890 376.305237,366.196564 378.423340,378.879730 
	C379.013885,382.415863 379.781921,385.965759 379.867828,389.523865 
	C379.908966,391.227661 378.979095,393.392883 377.757935,394.623962 
	C356.641479,415.912048 335.412842,437.088898 314.197083,458.278381 
	C313.533722,458.940948 312.745636,459.478699 311.582123,460.428650 
	C309.996307,451.005280 308.499695,442.103882 307.000183,433.202972 
	C304.782806,420.041138 302.554474,406.881134 300.347260,393.717590 
	C298.220367,381.033264 296.099915,368.347809 294.011261,355.657135 
	C293.587311,353.081146 293.318085,350.479706 292.908020,347.458252 
z"/>
<path fill="#F9D026" opacity="1.000000" stroke="none" 
	d="
M5.880552,505.978485 
	C10.717832,499.022400 15.462932,492.000000 20.410519,485.123291 
	C32.822174,467.872314 45.325436,450.687256 58.376808,432.668304 
	C46.402321,435.845581 35.378147,438.770691 23.002018,442.054535 
	C40.947281,420.861664 57.907780,400.831787 74.868279,380.801880 
	C74.675766,380.473999 74.483253,380.146118 74.290741,379.818207 
	C67.428169,381.851318 60.565598,383.884430 52.241344,386.350586 
	C55.932434,381.461853 58.612621,377.476379 61.725628,373.863892 
	C75.666748,357.685913 90.539268,342.481110 109.912727,332.749939 
	C118.724342,328.323914 128.115494,325.310150 139.008514,326.109131 
	C143.050125,331.068024 146.344437,335.891388 149.476044,341.072296 
	C140.696548,353.652069 132.058243,365.859131 123.469299,378.100861 
	C115.557983,389.376770 107.699715,400.689850 99.628967,412.094879 
	C99.222603,412.414215 99.093422,412.669739 98.787247,413.133301 
	C98.356148,413.870117 98.190117,414.443420 97.945297,414.997070 
	C97.866516,414.977417 97.704163,414.974670 97.400085,415.049500 
	C93.129562,419.847626 89.471466,424.876373 85.145210,429.243164 
	C61.980125,452.625488 38.691441,475.886169 15.316523,499.058807 
	C12.576946,501.774658 9.045103,503.691315 5.880552,505.978485 
z"/>
<path fill="#E7C224" opacity="1.000000" stroke="none" 
	d="
M5.621527,506.079956 
	C9.045103,503.691315 12.576946,501.774658 15.316523,499.058807 
	C38.691441,475.886169 61.980125,452.625488 85.145210,429.243164 
	C89.471466,424.876373 93.129562,419.847626 97.639297,415.330383 
	C99.691322,415.177307 101.487106,415.225769 102.664589,414.396393 
	C114.905083,405.774811 127.007248,396.957153 139.226120,388.304504 
	C150.483414,380.332794 161.836411,372.496216 173.439255,364.786591 
	C178.527206,368.281677 183.323166,371.590302 188.119125,374.898926 
	C188.647186,394.084106 179.691437,409.596375 168.402954,423.900421 
	C157.725983,437.429626 144.874924,448.862030 131.156662,459.284882 
	C130.386353,459.870148 129.417343,460.193909 127.889587,460.970398 
	C130.092239,453.575531 132.141647,446.695129 134.191055,439.814758 
	C133.888397,439.567505 133.585739,439.320282 133.283081,439.073029 
	C113.222206,456.049561 93.161324,473.026093 71.959419,490.968231 
	C75.233177,478.627594 78.156311,467.608673 81.340553,455.605499 
	C69.298637,464.345764 58.067657,472.476288 46.859364,480.638000 
	C33.111061,490.649261 19.397558,500.708466 5.606397,510.660217 
	C4.743410,511.282928 3.336689,511.152161 2.182940,511.371948 
	C2.412830,510.788696 2.642720,510.205414 3.218752,509.173187 
	C3.798419,508.491241 3.934905,508.210999 3.974357,507.883453 
	C4.437077,507.316101 4.899791,506.748749 5.621527,506.079956 
z"/>
<path fill="#474545" opacity="1.000000" stroke="none" 
	d="
M149.638763,340.714722 
	C146.344437,335.891388 143.050125,331.068024 139.474457,326.056519 
	C131.457214,311.663391 126.857094,296.617889 128.319427,280.314575 
	C129.568466,266.389435 134.144180,253.769760 145.556213,244.373123 
	C160.606979,259.255157 175.327866,274.105774 190.050888,288.954315 
	C191.921890,290.841278 193.804214,292.717072 195.720886,295.143890 
	C188.476746,300.928711 181.059479,305.995056 173.966324,311.480469 
	C170.488968,314.169708 167.289139,317.376892 164.535278,320.808350 
	C159.350998,327.268250 154.580994,334.060577 149.638763,340.714722 
z"/>
<path fill="#3C3A3B" opacity="1.000000" stroke="none" 
	d="
M188.453659,374.992981 
	C183.323166,371.590302 178.527206,368.281677 173.634872,364.551208 
	C178.629364,360.426392 183.611511,356.561005 188.839111,353.062317 
	C195.101898,348.870758 200.576355,344.079041 204.753754,337.653656 
	C209.169922,330.861023 214.233643,324.489349 219.014511,317.933807 
	C235.744141,334.569275 252.473785,351.204773 269.518646,367.936890 
	C266.285614,371.274994 263.172302,375.259979 259.115997,377.632996 
	C238.333405,389.791168 217.088333,387.725586 195.846207,378.703888 
	C193.419266,377.673157 191.137344,376.300903 188.453659,374.992981 
z"/>
<path fill="#F9D026" opacity="1.000000" stroke="none" 
	d="
M3.732471,507.982574 
	C3.934905,508.210999 3.798419,508.491241 3.370090,508.859802 
	C3.280386,508.690796 3.385487,508.386261 3.732471,507.982574 
z"/>
<path fill="#C63E2D" opacity="1.000000" stroke="none" 
	d="
M219.092834,317.605316 
	C214.233643,324.489349 209.169922,330.861023 204.753754,337.653656 
	C200.576355,344.079041 195.101898,348.870758 188.839111,353.062317 
	C183.611511,356.561005 178.629364,360.426392 173.342880,364.364746 
	C161.836411,372.496216 150.483414,380.332794 139.226120,388.304504 
	C127.007248,396.957153 114.905083,405.774811 102.664589,414.396393 
	C101.487106,415.225769 99.691322,415.177307 97.943367,415.255524 
	C97.704163,414.974670 97.866516,414.977417 98.198151,414.827454 
	C98.703964,414.108276 98.878136,413.539032 99.052307,412.969788 
	C99.093422,412.669739 99.222603,412.414215 99.995316,412.092438 
	C101.860886,411.008911 103.317940,410.183228 104.459976,409.042236 
	C157.043900,356.506897 209.605957,303.949707 262.124756,251.349304 
	C263.334656,250.137527 264.020172,248.402191 264.950287,246.911072 
	C264.950287,246.911072 264.996735,246.983215 265.265747,246.987366 
	C266.032379,246.683319 266.529999,246.375107 267.027649,246.066895 
	C267.027649,246.066910 266.983276,245.897720 266.977905,245.810303 
	C266.616455,247.684296 266.855469,250.064224 265.814697,251.544113 
	C251.122192,272.435547 236.255035,293.204163 221.433533,314.004944 
	C220.664169,315.084686 219.924591,316.185699 219.092834,317.605316 
z"/>
<path fill="#8FC2D7" opacity="1.000000" stroke="none" 
	d="
M374.031311,139.143311 
	C374.031311,139.143311 374.509644,139.135590 374.748047,139.157043 
	C382.551636,147.295563 386.889252,157.009003 386.776855,167.985199 
	C386.653198,180.060684 382.078796,190.684204 372.679260,198.741104 
	C357.958801,211.358948 337.825104,212.238785 322.049408,200.971619 
	C320.481384,199.851700 319.305908,198.182159 318.089172,196.133667 
	C323.966217,189.711380 329.704742,183.925491 335.437988,178.134384 
	C348.303833,165.138733 361.167023,152.140488 374.031311,139.143311 
z"/>
<path fill="#BCE8F7" opacity="1.000000" stroke="none" 
	d="
M373.887085,138.823380 
	C361.167023,152.140488 348.303833,165.138733 335.437988,178.134384 
	C329.704742,183.925491 323.966217,189.711380 318.032715,195.787964 
	C317.436646,196.055115 317.037964,196.033951 316.339172,196.002396 
	C309.171692,188.233185 305.315308,178.957748 305.232056,168.825485 
	C305.125244,155.823074 310.061920,144.501389 320.589111,136.271393 
	C331.645782,127.627457 344.275269,125.173607 357.518402,129.304245 
	C363.318695,131.113419 368.358032,135.362381 373.887085,138.823380 
z"/>
<path fill="#F64E38" opacity="1.000000" stroke="none" 
	d="
M264.607697,246.964142 
	C264.020172,248.402191 263.334656,250.137527 262.124756,251.349304 
	C209.605957,303.949707 157.043900,356.506897 104.459976,409.042236 
	C103.317940,410.183228 101.860886,411.008911 100.184433,411.984100 
	C107.699715,400.689850 115.557983,389.376770 123.469299,378.100861 
	C132.058243,365.859131 140.696548,353.652069 149.476044,341.072296 
	C154.580994,334.060577 159.350998,327.268250 164.535278,320.808350 
	C167.289139,317.376892 170.488968,314.169708 173.966324,311.480469 
	C181.059479,305.995056 188.476746,300.928711 195.940247,295.405945 
	C211.002914,284.642792 225.892151,274.172363 240.766174,263.680389 
	C248.612839,258.145447 256.432983,252.572845 264.607697,246.964142 
z"/>
<path fill="#F64E38" opacity="1.000000" stroke="none" 
	d="
M266.709839,246.036102 
	C266.529999,246.375107 266.032379,246.683319 265.227295,246.968323 
	C265.410583,246.631851 265.901337,246.318588 266.709839,246.036102 
z"/>
<path fill="#F64E38" opacity="1.000000" stroke="none" 
	d="
M98.787247,413.133301 
	C98.878136,413.539032 98.703964,414.108276 98.276932,414.847107 
	C98.190117,414.443420 98.356148,413.870117 98.787247,413.133301 
z"/>
</svg>