<svg version="1.1" id="Layer_1" xmlns="http://www.w3.org/2000/svg" xmlns:xlink="http://www.w3.org/1999/xlink" x="0px" y="0px"
	 width="100%" viewBox="0 0 500 500" enable-background="new 0 0 500 500" xml:space="preserve">
<path fill="#000000" opacity="1.000000" stroke="none" 
	d="
M279.000000,501.000000 
	C186.000015,501.000000 93.500046,501.000000 1.000050,501.000000 
	C1.000033,334.333405 1.000033,167.666794 1.000017,1.000139 
	C167.666565,1.000093 334.333130,1.000093 500.999756,1.000046 
	C500.999847,167.666519 500.999847,334.333038 500.999939,500.999786 
	C427.166656,501.000000 353.333344,501.000000 279.000000,501.000000 
M114.439270,360.078186 
	C114.349144,360.380981 114.259018,360.683777 114.006912,361.776581 
	C112.061386,370.516052 110.115860,379.255524 108.019707,388.736908 
	C106.401649,393.714478 108.383125,395.061829 113.132896,394.022705 
	C121.646950,392.160065 130.212128,390.529602 138.718628,388.634583 
	C142.686630,387.750702 146.567429,386.475433 150.487762,385.377563 
	C150.639038,385.864868 150.790314,386.352173 150.941589,386.839478 
	C147.372421,388.738922 143.803253,390.638397 138.754532,393.325256 
	C144.414749,394.400757 148.743118,396.239349 152.820053,395.791107 
	C161.945877,394.787781 171.382660,393.824799 179.890717,390.677307 
	C191.197021,386.494598 201.225815,379.588989 208.000275,369.001007 
	C208.000275,369.001007 208.063568,369.063782 208.792221,368.769531 
	C209.201294,368.825500 209.610367,368.881470 210.007492,369.675629 
	C207.498642,373.839142 204.989777,378.002686 202.480927,382.166199 
	C202.774918,382.523804 203.068909,382.881378 203.362900,383.238983 
	C208.480835,382.175323 213.793869,381.757629 218.863907,378.002380 
	C219.499008,377.890900 220.225266,377.942017 220.756027,377.644470 
	C241.145828,366.214111 257.505310,346.949036 254.784134,320.741760 
	C254.091309,314.069153 251.860855,306.999664 248.361465,301.332306 
	C244.899963,295.726288 238.941528,291.662048 233.819611,286.303406 
	C223.345276,275.838440 212.872910,265.371490 202.393280,254.911804 
	C201.459457,253.979767 200.633026,252.655396 199.495728,252.255493 
	C186.452911,247.669235 173.157272,245.376541 159.633286,249.845428 
	C143.167038,255.286560 132.028458,266.994904 124.141617,281.902588 
	C121.429855,287.028290 120.069229,292.868835 118.091370,298.382812 
	C118.620117,298.698120 119.148865,299.013397 119.677620,299.328705 
	C124.092911,296.857330 128.508209,294.385925 133.310364,292.293213 
	C133.448547,292.409271 133.586731,292.525299 133.282883,293.153320 
	C125.011681,299.272980 118.925156,307.206238 113.962044,316.129730 
	C109.065170,324.934113 106.813400,334.546021 106.188339,344.385468 
	C105.820366,350.178070 107.280540,356.086823 107.918488,361.943329 
	C108.615532,361.995178 109.312584,362.047028 110.009628,362.098907 
	C112.018082,357.771057 114.026535,353.443207 116.778694,349.336395 
	C116.160225,352.879242 115.541756,356.422058 114.992157,359.998840 
	C114.992157,359.998840 114.946228,359.937317 114.439270,360.078186 
M240.224136,284.727570 
	C250.054504,294.573212 259.884857,304.418823 270.655670,315.206360 
	C273.717224,307.541534 276.402893,300.817719 279.743896,293.843475 
	C281.776184,292.899353 283.808472,291.955200 286.165771,291.648315 
	C290.788452,297.785248 292.882507,304.432129 291.521515,312.272430 
	C289.758362,322.429504 284.575775,330.897827 279.122040,339.251404 
	C274.161682,346.849213 268.740601,354.147705 263.844513,361.784546 
	C263.007599,363.089935 263.786804,365.431458 263.819427,367.294312 
	C265.716034,366.875397 268.141449,367.060883 269.423279,365.939331 
	C277.617188,358.770233 285.989685,351.722961 293.478668,343.850952 
	C303.448181,333.371552 313.000366,322.447540 322.100586,311.203583 
	C329.450714,302.121979 332.471313,291.268616 328.856964,279.877777 
	C326.996307,274.013794 322.926422,268.850739 320.026154,262.618713 
	C320.145813,262.144958 320.111084,261.517822 320.407410,261.219574 
	C330.491150,251.070755 341.844391,241.889557 350.393738,230.586533 
	C360.375183,217.390137 368.522797,202.667542 376.282715,187.981888 
	C380.983337,179.085983 383.441376,169.005112 387.457001,159.023193 
	C388.116547,156.731964 388.954193,154.475021 389.403320,152.143265 
	C390.951660,144.104568 392.364349,136.039734 393.963898,127.135208 
	C394.639893,121.794670 395.339417,116.456963 395.982666,111.112480 
	C396.339355,108.148842 395.038116,106.737801 391.984344,107.000702 
	C383.967682,107.690834 375.859924,107.825089 367.953857,109.160202 
	C359.515411,110.585228 351.266418,113.131912 342.141815,115.073776 
	C323.776001,119.993301 306.682343,127.888779 290.642212,137.938522 
	C274.042755,148.338715 258.828705,160.505219 245.953156,175.427826 
	C243.805939,177.916412 241.111557,179.932877 238.028137,181.988297 
	C222.509689,169.448990 208.382080,168.946930 195.252502,177.646957 
	C184.239578,184.944412 174.148743,193.741074 164.199905,202.499054 
	C157.516083,208.382828 151.765518,215.332016 145.649460,221.853363 
	C142.378510,225.341064 139.018188,228.778580 136.111282,232.556580 
	C135.034668,233.955780 134.227783,236.737839 134.910034,238.052856 
	C136.073151,240.294693 138.634705,240.129852 140.810486,238.635880 
	C141.747772,237.992294 142.819565,237.521133 143.681747,236.795273 
	C154.462997,227.718643 166.019089,219.832306 178.901474,214.027267 
	C189.959747,209.044189 200.847305,207.640579 211.007492,216.895844 
	C209.906906,218.955795 208.806320,221.015747 207.008820,223.031799 
	C200.662537,225.840881 194.316238,228.649963 188.025696,231.434357 
	C188.209076,232.158951 188.186111,232.570023 188.380127,232.763489 
	C205.560196,249.894989 222.756958,267.009735 240.224136,284.727570 
z"/>
<path fill="#F0F0F0" opacity="1.000000" stroke="none" 
	d="
M238.670044,182.167526 
	C241.111557,179.932877 243.805939,177.916412 245.953156,175.427826 
	C258.828705,160.505219 274.042755,148.338715 290.642212,137.938522 
	C306.682343,127.888779 323.776001,119.993301 342.368408,115.405701 
	C342.604248,116.349411 342.413239,117.056206 342.651825,117.559250 
	C350.828705,134.798447 362.920380,148.327118 380.336578,157.195648 
	C381.011749,157.793823 381.499542,158.154663 381.615906,158.697327 
	C380.530182,159.973892 379.690796,161.007401 379.120056,162.172501 
	C369.707672,181.387009 357.852417,198.946152 343.042847,214.390366 
	C324.041595,234.205917 301.383301,249.264206 278.090546,263.436707 
	C272.054626,267.109283 265.948334,270.666199 259.570251,274.123657 
	C249.131699,263.997040 238.997299,254.023010 228.737946,243.763672 
	C227.391510,242.365326 226.170059,241.252289 224.801849,239.836884 
	C219.005310,234.048248 213.355515,228.561981 207.705750,223.075699 
	C208.806320,221.015747 209.906906,218.955795 211.318939,216.559067 
	C212.292786,215.984406 213.200867,215.946548 213.581406,215.479172 
	C221.756226,205.439117 229.895386,195.369553 237.951141,185.233902 
	C238.541779,184.490753 238.446457,183.202408 238.670044,182.167526 
M349.894836,186.174194 
	C348.824585,166.000870 332.957581,151.235565 313.303497,152.123505 
	C294.691345,152.964386 279.714508,168.753174 280.068542,187.856567 
	C281.087433,207.984863 296.901154,222.726105 316.643250,221.950775 
	C335.110535,221.225525 350.085785,205.422424 349.894836,186.174194 
z"/>
<path fill="#FFE503" opacity="1.000000" stroke="none" 
	d="
M116.034988,349.115387 
	C114.026535,353.443207 112.018082,357.771057 110.009628,362.098907 
	C109.312584,362.047028 108.615532,361.995178 107.918488,361.943329 
	C107.280540,356.086823 105.820366,350.178070 106.188339,344.385468 
	C106.813400,334.546021 109.065170,324.934113 113.962044,316.129730 
	C118.925156,307.206238 125.011681,299.272980 133.755310,292.694641 
	C134.765778,292.044006 135.303818,291.851990 135.841873,291.660004 
	C135.751434,291.382050 135.660995,291.104065 135.570557,290.826111 
	C134.688202,291.188934 133.805862,291.551727 132.923508,291.914551 
	C128.508209,294.385925 124.092911,296.857330 119.677620,299.328705 
	C119.148865,299.013397 118.620117,298.698120 118.091370,298.382812 
	C120.069229,292.868835 121.429855,287.028290 124.141617,281.902588 
	C132.028458,266.994904 143.167038,255.286560 159.633286,249.845428 
	C173.157272,245.376541 186.452911,247.669235 199.495728,252.255493 
	C200.633026,252.655396 201.459457,253.979767 202.393280,254.911804 
	C212.872910,265.371490 223.345276,275.838440 233.674530,286.854187 
	C231.736221,292.921631 229.976425,298.449432 228.142960,303.952667 
	C223.972565,316.470276 216.672134,325.848633 202.592865,327.180023 
	C191.564133,328.222931 180.459244,328.798065 169.382004,328.898468 
	C157.514267,329.006012 149.643417,334.120850 143.983109,344.589996 
	C138.102081,355.467346 131.536087,366.116608 124.026794,375.912903 
	C120.126015,381.001678 113.542152,384.033813 108.170334,387.994995 
	C110.115860,379.255524 112.061386,370.516052 114.271545,361.251312 
	C114.757210,360.506989 114.893890,360.244080 114.946228,359.937317 
	C114.946228,359.937317 114.992157,359.998840 115.258026,359.788574 
	C117.255585,355.171173 118.987282,350.763977 120.722916,346.346802 
	C121.486320,346.493439 121.971733,346.562134 122.444359,346.681488 
	C125.365021,347.418884 128.306198,347.001770 128.645325,343.738647 
	C128.856461,341.707031 127.440048,338.134827 125.944778,337.624268 
	C123.793793,336.889801 120.491562,337.114258 119.640945,341.129761 
	C119.049675,343.921021 117.278839,346.462372 116.034988,349.115387 
M129.224655,332.055878 
	C130.226364,334.053223 131.228058,336.050568 132.229767,338.047913 
	C132.668106,338.040924 133.106445,338.033905 133.544785,338.026886 
	C133.064484,331.734985 137.364594,332.526123 139.603409,332.491394 
	C146.309006,326.875519 152.611176,322.278992 155.940079,314.397095 
	C153.777542,313.672668 151.810196,313.013611 149.842834,312.354584 
	C149.418655,313.887238 149.039154,315.434692 148.539917,316.942474 
	C148.409790,317.335541 147.913727,317.612793 147.573532,317.930176 
	C143.017563,322.180603 138.542114,326.524261 133.833588,330.598572 
	C132.866745,331.435181 131.026291,331.262207 129.224655,332.055878 
z"/>
<path fill="#FADC03" opacity="1.000000" stroke="none" 
	d="
M108.095024,388.365967 
	C113.542152,384.033813 120.126015,381.001678 124.026794,375.912903 
	C131.536087,366.116608 138.102081,355.467346 143.983109,344.589996 
	C149.643417,334.120850 157.514267,329.006012 169.382004,328.898468 
	C180.459244,328.798065 191.564133,328.222931 202.592865,327.180023 
	C216.672134,325.848633 223.972565,316.470276 228.142960,303.952667 
	C229.976425,298.449432 231.736221,292.921631 233.803925,287.163269 
	C238.941528,291.662048 244.899963,295.726288 248.361465,301.332306 
	C251.860855,306.999664 254.091309,314.069153 254.784134,320.741760 
	C257.505310,346.949036 241.145828,366.214111 220.756027,377.644470 
	C220.225266,377.942017 219.499008,377.890900 218.196381,377.969360 
	C215.777039,375.372009 214.025223,372.807739 211.937790,369.752136 
	C213.750473,365.372864 215.923050,360.124176 218.095612,354.875458 
	C217.550369,354.629517 217.005127,354.383575 216.459869,354.137604 
	C214.306931,358.475464 212.153976,362.813293 209.854431,367.512085 
	C209.804642,368.272369 209.901443,368.671692 209.976288,369.033325 
	C209.954346,368.995636 210.019440,368.937469 210.019440,368.937469 
	C209.610367,368.881470 209.201294,368.825500 208.367096,368.787537 
	C207.865219,368.754456 207.788467,368.703339 207.711700,368.652252 
	C207.829315,368.789062 207.946930,368.925873 208.064545,369.062683 
	C201.225815,379.588989 191.197021,386.494598 179.890717,390.677307 
	C171.382660,393.824799 161.945877,394.787781 152.820053,395.791107 
	C148.743118,396.239349 144.414749,394.400757 138.754532,393.325256 
	C143.803253,390.638397 147.372421,388.738922 150.941589,386.839478 
	C150.790314,386.352173 150.639038,385.864868 150.487762,385.377563 
	C146.567429,386.475433 142.686630,387.750702 138.718628,388.634583 
	C130.212128,390.529602 121.646950,392.160065 113.132896,394.022705 
	C108.383125,395.061829 106.401649,393.714478 108.095024,388.365967 
z"/>
<path fill="#DDDDDD" opacity="1.000000" stroke="none" 
	d="
M259.874390,274.276245 
	C265.948334,270.666199 272.054626,267.109283 278.090546,263.436707 
	C301.383301,249.264206 324.041595,234.205917 343.042847,214.390366 
	C357.852417,198.946152 369.707672,181.387009 379.120056,162.172501 
	C379.690796,161.007401 380.530182,159.973892 381.921112,158.765350 
	C384.034119,158.919907 385.470520,159.188263 386.906921,159.456619 
	C383.441376,169.005112 380.983337,179.085983 376.282715,187.981888 
	C368.522797,202.667542 360.375183,217.390137 350.393738,230.586533 
	C341.844391,241.889557 330.491150,251.070755 320.407410,261.219574 
	C320.111084,261.517822 320.145813,262.144958 319.594116,262.901123 
	C318.554230,263.292236 317.785492,263.200043 317.362152,263.539154 
	C307.146362,271.721710 296.948547,279.927216 286.825958,288.224335 
	C286.174133,288.758636 286.154480,290.064270 285.840759,291.011078 
	C283.808472,291.955200 281.776184,292.899353 279.196777,293.708649 
	C272.384552,287.398590 266.119385,281.223389 259.851227,274.854980 
	C259.848206,274.661774 259.874390,274.276245 259.874390,274.276245 
z"/>
<path fill="#E54228" opacity="1.000000" stroke="none" 
	d="
M286.003265,291.329712 
	C286.154480,290.064270 286.174133,288.758636 286.825958,288.224335 
	C296.948547,279.927216 307.146362,271.721710 317.362152,263.539154 
	C317.785492,263.200043 318.554230,263.292236 319.508453,263.277222 
	C322.926422,268.850739 326.996307,274.013794 328.856964,279.877777 
	C332.471313,291.268616 329.450714,302.121979 322.100586,311.203583 
	C313.000366,322.447540 303.448181,333.371552 293.478668,343.850952 
	C285.989685,351.722961 277.617188,358.770233 269.423279,365.939331 
	C268.141449,367.060883 265.716034,366.875397 263.819427,367.294312 
	C263.786804,365.431458 263.007599,363.089935 263.844513,361.784546 
	C268.740601,354.147705 274.161682,346.849213 279.122040,339.251404 
	C284.575775,330.897827 289.758362,322.429504 291.521515,312.272430 
	C292.882507,304.432129 290.788452,297.785248 286.003265,291.329712 
z"/>
<path fill="#FD472B" opacity="1.000000" stroke="none" 
	d="
M238.349091,182.077911 
	C238.446457,183.202408 238.541779,184.490753 237.951141,185.233902 
	C229.895386,195.369553 221.756226,205.439117 213.581406,215.479172 
	C213.200867,215.946548 212.292786,215.984406 211.332428,216.199081 
	C200.847305,207.640579 189.959747,209.044189 178.901474,214.027267 
	C166.019089,219.832306 154.462997,227.718643 143.681747,236.795273 
	C142.819565,237.521133 141.747772,237.992294 140.810486,238.635880 
	C138.634705,240.129852 136.073151,240.294693 134.910034,238.052856 
	C134.227783,236.737839 135.034668,233.955780 136.111282,232.556580 
	C139.018188,228.778580 142.378510,225.341064 145.649460,221.853363 
	C151.765518,215.332016 157.516083,208.382828 164.199905,202.499054 
	C174.148743,193.741074 184.239578,184.944412 195.252502,177.646957 
	C208.382080,168.946930 222.509689,169.448990 238.349091,182.077911 
z"/>
<path fill="#FE462A" opacity="1.000000" stroke="none" 
	d="
M380.149170,156.958313 
	C362.920380,148.327118 350.828705,134.798447 342.651825,117.559250 
	C342.413239,117.056206 342.604248,116.349411 342.764832,115.463287 
	C351.266418,113.131912 359.515411,110.585228 367.953857,109.160202 
	C375.859924,107.825089 383.967682,107.690834 391.984344,107.000702 
	C395.038116,106.737801 396.339355,108.148842 395.982666,111.112480 
	C395.339417,116.456963 394.639893,121.794670 393.555847,127.647774 
	C390.403290,135.380707 387.812805,142.665497 384.833099,149.787430 
	C383.749420,152.377563 381.737549,154.579346 380.149170,156.958313 
z"/>
<path fill="#1289CB" opacity="1.000000" stroke="none" 
	d="
M259.570251,274.123657 
	C259.874390,274.276245 259.848206,274.661774 259.545135,275.003967 
	C256.122833,276.756653 253.000809,278.160980 249.885147,279.579285 
	C246.571152,281.087830 243.263184,282.609650 239.952576,284.125641 
	C222.756958,267.009735 205.560196,249.894989 188.380127,232.763489 
	C188.186111,232.570023 188.209076,232.158951 188.025696,231.434357 
	C194.316238,228.649963 200.662537,225.840881 207.357269,223.053741 
	C213.355515,228.561981 219.005310,234.048248 224.794281,240.211823 
	C224.379822,241.580643 223.768387,242.234314 223.285278,242.972015 
	C222.432312,244.274521 221.657578,245.628265 220.850067,246.960541 
	C221.247086,247.127869 221.644104,247.295181 222.041122,247.462494 
	C224.315048,246.324646 226.588974,245.186813 228.862900,244.048965 
	C238.997299,254.023010 249.131699,263.997040 259.570251,274.123657 
M218.281403,247.468124 
	C218.012772,247.723831 217.741669,247.977219 217.489700,248.248413 
	C217.483276,248.255356 217.687241,248.457764 217.793060,248.569000 
	C218.061630,248.313080 218.330185,248.057159 218.281403,247.468124 
M220.514450,251.428040 
	C220.514450,251.428040 220.564468,251.518921 220.514450,251.428040 
z"/>
<path fill="#0F7BB8" opacity="1.000000" stroke="none" 
	d="
M240.088348,284.426605 
	C243.263184,282.609650 246.571152,281.087830 249.885147,279.579285 
	C253.000809,278.160980 256.122833,276.756653 259.548157,275.197174 
	C266.119385,281.223389 272.384552,287.398590 278.869141,293.833862 
	C276.402893,300.817719 273.717224,307.541534 270.655670,315.206360 
	C259.884857,304.418823 250.054504,294.573212 240.088348,284.426605 
z"/>
<path fill="#FEE50E" opacity="1.000000" stroke="none" 
	d="
M210.001038,367.151123 
	C212.153976,362.813293 214.306931,358.475464 216.459869,354.137604 
	C217.005127,354.383575 217.550369,354.629517 218.095612,354.875458 
	C215.923050,360.124176 213.750473,365.372864 211.937790,369.752136 
	C214.025223,372.807739 215.777039,375.372009 217.818359,377.984436 
	C213.793869,381.757629 208.480835,382.175323 203.362900,383.238983 
	C203.068909,382.881378 202.774918,382.523804 202.480927,382.166199 
	C204.989777,378.002686 207.498642,373.839142 210.013458,369.306549 
	C210.019440,368.937469 209.954346,368.995636 210.279144,368.942688 
	C210.402985,368.310211 210.202011,367.730652 210.001038,367.151123 
z"/>
<path fill="#E54228" opacity="1.000000" stroke="none" 
	d="
M380.336548,157.195648 
	C381.737549,154.579346 383.749420,152.377563 384.833099,149.787430 
	C387.812805,142.665497 390.403290,135.380707 393.488220,128.072601 
	C392.364349,136.039734 390.951660,144.104568 389.403320,152.143265 
	C388.954193,154.475021 388.116547,156.731964 387.181976,159.239899 
	C385.470520,159.188263 384.034119,158.919907 382.292480,158.583527 
	C381.499542,158.154663 381.011749,157.793823 380.336548,157.195648 
z"/>
<path fill="#FEE50E" opacity="1.000000" stroke="none" 
	d="
M116.406837,349.225891 
	C117.278839,346.462372 119.049675,343.921021 119.640945,341.129761 
	C120.491562,337.114258 123.793793,336.889801 125.944778,337.624268 
	C127.440048,338.134827 128.856461,341.707031 128.645325,343.738647 
	C128.306198,347.001770 125.365021,347.418884 122.444359,346.681488 
	C121.971733,346.562134 121.486320,346.493439 120.722916,346.346802 
	C118.987282,350.763977 117.255585,355.171173 115.223587,359.771606 
	C115.541756,356.422058 116.160225,352.879242 116.406837,349.225891 
z"/>
<path fill="#FEE50E" opacity="1.000000" stroke="none" 
	d="
M114.692749,360.007751 
	C114.893890,360.244080 114.757210,360.506989 114.352539,360.856323 
	C114.259018,360.683777 114.349144,360.380981 114.692749,360.007751 
z"/>
<path fill="#2291CC" opacity="1.000000" stroke="none" 
	d="
M280.207794,187.013443 
	C279.714508,168.753174 294.691345,152.964386 313.303497,152.123505 
	C332.957581,151.235565 348.824585,166.000870 349.486786,186.590134 
	C348.184052,187.010849 347.289368,187.015625 346.294739,186.688538 
	C346.111755,185.903275 346.028748,185.449890 345.993103,184.595398 
	C345.051971,180.787201 344.063477,177.380112 343.032288,173.623688 
	C342.258148,171.972061 341.641022,170.587982 340.777283,169.380264 
	C333.430878,159.108154 323.288910,154.499191 310.904907,156.097092 
	C299.839600,157.524796 291.390930,163.286804 286.611267,174.194336 
	C285.574158,177.967209 284.800446,181.484116 283.944336,185.373901 
	C283.938232,186.502487 284.014526,187.258179 283.993622,188.265717 
	C283.817047,188.679108 283.737701,188.840637 283.457153,188.767822 
	C282.239929,188.026810 281.223846,187.520126 280.207794,187.013443 
z"/>
<path fill="#1B82BA" opacity="1.000000" stroke="none" 
	d="
M346.394684,187.020416 
	C347.289368,187.015625 348.184052,187.010849 349.414124,187.010223 
	C350.085785,205.422424 335.110535,221.225525 316.643250,221.950775 
	C296.901154,222.726105 281.087433,207.984863 280.138184,187.434998 
	C281.223846,187.520126 282.239929,188.026810 283.555298,189.133881 
	C283.963196,190.481201 284.071777,191.228134 284.158875,192.347595 
	C285.366577,195.878494 286.595795,199.036880 287.883301,202.407684 
	C287.941559,202.620087 288.210541,202.968979 288.294250,203.287521 
	C302.699463,223.592148 329.121155,223.278046 341.902100,202.787262 
	C342.038177,202.603134 342.150116,202.159576 342.428192,201.931152 
	C343.729156,198.457672 344.752014,195.212616 345.868652,191.580215 
	C345.949280,190.135117 345.936096,189.077362 346.045502,187.772003 
	C346.243591,187.356415 346.319122,187.188416 346.394684,187.020416 
z"/>
<path fill="#2291CC" opacity="1.000000" stroke="none" 
	d="
M228.737946,243.763672 
	C226.588974,245.186813 224.315048,246.324646 222.041122,247.462494 
	C221.644104,247.295181 221.247086,247.127869 220.850067,246.960541 
	C221.657578,245.628265 222.432312,244.274521 223.285278,242.972015 
	C223.768387,242.234314 224.379822,241.580643 224.941025,240.514175 
	C226.170059,241.252289 227.391510,242.365326 228.737946,243.763672 
z"/>
<path fill="#FEE50E" opacity="1.000000" stroke="none" 
	d="
M129.406586,331.805237 
	C131.026291,331.262207 132.866745,331.435181 133.833588,330.598572 
	C138.542114,326.524261 143.017563,322.180603 147.573532,317.930176 
	C147.913727,317.612793 148.409790,317.335541 148.539917,316.942474 
	C149.039154,315.434692 149.418655,313.887238 149.842834,312.354584 
	C151.810196,313.013611 153.777542,313.672668 155.940079,314.397095 
	C152.611176,322.278992 146.309006,326.875519 139.603409,332.491394 
	C137.364594,332.526123 133.064484,331.734985 133.544785,338.026886 
	C133.106445,338.033905 132.668106,338.040924 132.229767,338.047913 
	C131.228058,336.050568 130.226364,334.053223 129.406586,331.805237 
z"/>
<path fill="#000000" opacity="1.000000" stroke="none" 
	d="
M133.116943,292.103882 
	C133.805862,291.551727 134.688202,291.188934 135.570557,290.826111 
	C135.660995,291.104065 135.751434,291.382050 135.841873,291.660004 
	C135.303818,291.851990 134.765778,292.044006 133.976318,292.438660 
	C133.586731,292.525299 133.448547,292.409271 133.116943,292.103882 
z"/>
<path fill="#000000" opacity="1.000000" stroke="none" 
	d="
M209.854431,367.512085 
	C210.202011,367.730652 210.402985,368.310211 210.301086,368.980408 
	C209.901443,368.671692 209.804642,368.272369 209.854431,367.512085 
z"/>
<path fill="#FEE50E" opacity="1.000000" stroke="none" 
	d="
M208.032410,369.031860 
	C207.946930,368.925873 207.829315,368.789062 207.711700,368.652252 
	C207.788467,368.703339 207.865219,368.754456 208.002777,368.934662 
	C208.063568,369.063782 208.000275,369.001007 208.032410,369.031860 
z"/>
<path fill="#2291CC" opacity="1.000000" stroke="none" 
	d="
M218.440063,247.634674 
	C218.330185,248.057159 218.061630,248.313080 217.793060,248.569000 
	C217.687241,248.457764 217.483276,248.255356 217.489700,248.248413 
	C217.741669,247.977219 218.012772,247.723831 218.440063,247.634674 
z"/>
<path fill="#2291CC" opacity="1.000000" stroke="none" 
	d="
M220.539459,251.473480 
	C220.564468,251.518921 220.514450,251.428040 220.539459,251.473480 
z"/>
<path fill="#C7EFFD" opacity="1.000000" stroke="none" 
	d="
M286.874695,173.938354 
	C291.390930,163.286804 299.839600,157.524796 310.904907,156.097092 
	C323.288910,154.499191 333.430878,159.108154 340.777283,169.380264 
	C341.641022,170.587982 342.258148,171.972061 342.558167,173.636810 
	C323.709381,173.978958 305.292053,173.958664 286.874695,173.938354 
z"/>
<path fill="#F4FDFE" opacity="1.000000" stroke="none" 
	d="
M286.611267,174.194321 
	C305.292053,173.958664 323.709381,173.978958 342.600861,173.986145 
	C344.063477,177.380112 345.051971,180.787201 345.528381,184.604996 
	C324.686432,185.010803 304.356598,185.005920 284.026764,185.001038 
	C284.800446,181.484116 285.574158,177.967209 286.611267,174.194321 
z"/>
<path fill="#F4FDFE" opacity="1.000000" stroke="none" 
	d="
M284.180359,191.975067 
	C284.071777,191.228134 283.963196,190.481201 283.756470,189.368225 
	C283.737701,188.840637 283.817047,188.679108 284.455688,188.268524 
	C305.317657,188.019516 325.620270,188.019562 345.922913,188.019608 
	C345.936096,189.077362 345.949280,190.135117 345.415344,191.591766 
	C324.638947,191.985474 304.409637,191.980270 284.180359,191.975067 
z"/>
<path fill="#CBF1FD" opacity="1.000000" stroke="none" 
	d="
M346.045502,187.772003 
	C325.620270,188.019562 305.317657,188.019516 284.552917,188.016678 
	C284.014526,187.258179 283.938232,186.502487 283.944336,185.373901 
	C304.356598,185.005920 324.686432,185.010803 345.481018,185.006104 
	C346.028748,185.449890 346.111755,185.903275 346.294739,186.688538 
	C346.319122,187.188416 346.243591,187.356415 346.045502,187.772003 
z"/>
<path fill="#C7EFFD" opacity="1.000000" stroke="none" 
	d="
M341.765991,202.971405 
	C329.121155,223.278046 302.699463,223.592148 288.748352,203.291565 
	C306.667816,202.975174 324.216888,202.973282 341.765991,202.971405 
z"/>
<path fill="#CBF1FD" opacity="1.000000" stroke="none" 
	d="
M284.158875,192.347595 
	C304.409637,191.980270 324.638947,191.985474 345.321533,191.979126 
	C344.752014,195.212616 343.729156,198.457672 342.127930,201.619690 
	C340.920380,201.361099 340.291565,201.033554 339.661987,201.032196 
	C323.582214,200.997833 307.502228,200.971878 291.422760,201.043350 
	C290.221832,201.048691 289.024170,201.793961 287.825012,202.195267 
	C286.595795,199.036880 285.366577,195.878494 284.158875,192.347595 
z"/>
<path fill="#F4FDFE" opacity="1.000000" stroke="none" 
	d="
M287.883301,202.407684 
	C289.024170,201.793961 290.221832,201.048691 291.422760,201.043350 
	C307.502228,200.971878 323.582214,200.997833 339.661987,201.032196 
	C340.291565,201.033554 340.920380,201.361099 341.849854,201.848114 
	C342.150116,202.159576 342.038177,202.603134 341.902100,202.787262 
	C324.216888,202.973282 306.667816,202.975174 288.664612,202.973022 
	C288.210541,202.968979 287.941559,202.620087 287.883301,202.407684 
z"/>
</svg>