<svg xmlns="http://www.w3.org/2000/svg" version="1.0" width="500.000000pt" height="500.000000pt" viewBox="0 0 500.000000 500.000000" preserveAspectRatio="xMidYMid meet">

<g transform="translate(0.000000,500.000000) scale(0.100000,-0.100000)" fill="#000000" stroke="none">
<path d="M3865 3933 c-146 -12 -400 -59 -442 -82 -16 -9 57 -134 121 -209 64 -74 139 -137 226 -188 53 -31 76 -40 81 -31 13 25 58 235 68 317 23 194 23 200 4 198 -10 -1 -36 -3 -58 -5z"/>
<path d="M3013 3459 c-183 -70 -270 -299 -180 -475 82 -160 283 -233 443 -160 171 78 249 266 183 442 -30 80 -112 163 -192 192 -75 29 -181 29 -254 1z m251 -28 c55 -24 120 -82 151 -135 93 -159 20 -371 -154 -449 -72 -32 -180 -30 -252 6 -67 32 -132 99 -162 165 -29 65 -29 179 0 243 38 86 117 156 206 185 54 18 154 11 211 -15z"/>
<path d="M2010 3257 c-108 -44 -249 -157 -425 -339 -193 -198 -249 -266 -235 -282 16 -20 31 -13 140 70 184 139 344 214 454 214 54 0 121 -25 145 -53 7 -10 17 -17 21 -17 4 0 32 33 62 73 30 39 89 112 131 162 89 105 89 103 -26 160 -60 30 -79 35 -141 35 -51 0 -87 -7 -126 -23z"/>
<path d="M1968 2732 l-87 -37 405 -409 c222 -225 406 -407 408 -405 2 2 21 46 42 97 l37 94 -349 349 c-192 192 -353 349 -359 348 -5 0 -49 -17 -97 -37z"/>
<path d="M3100 2317 c-41 -35 -116 -96 -167 -134 l-92 -70 24 -23 c65 -61 71 -179 16 -310 -33 -81 -124 -227 -201 -325 -56 -72 -63 -90 -44 -105 17 -15 77 35 283 235 152 148 276 297 323 388 30 57 33 70 33 157 0 104 -16 151 -72 218 l-28 33 -75 -64z"/>
</g>
</svg>